<svg xmlns="http://www.w3.org/2000/svg" xmlns:xlink="http://www.w3.org/1999/xlink" width="190" zoomAndPan="magnify" viewBox="0 0 142.5 30.000001" height="40" preserveAspectRatio="xMidYMid meet" version="1.0"><defs><g></g></defs><g fill="#000000" fill-opacity="1"><g transform="translate(7.052497, 21.150255)"><g><path d="M 8.703125 -15.84375 C 9.265625 -15.84375 10.546875 -15.238281 12.546875 -14.03125 C 12.898438 -13.457031 13.078125 -13 13.078125 -12.65625 L 13.078125 -11.84375 C 13.078125 -11.164062 12.492188 -10.40625 11.328125 -9.5625 L 11.453125 -9.28125 L 11.453125 -8 L 11.65625 -7.046875 L 11.546875 -7.046875 L 11.625 -6.875 L 11.625 -6.6875 C 11.625 -4.726562 11.03125 -3.46875 9.84375 -2.90625 L 9.84375 -2.96875 L 9.8125 -2.96875 C 11.28125 -3.070312 13.414062 -3.34375 16.21875 -3.78125 C 17.101562 -3.78125 17.546875 -3.351562 17.546875 -2.5 C 17.546875 -1.757812 15 -1.234375 9.90625 -0.921875 C 9.757812 -0.816406 6.992188 -0.382812 1.609375 0.375 C 0.984375 0.132812 0.503906 -0.222656 0.171875 -0.703125 L 0.171875 -1.046875 C 0.171875 -1.535156 1.554688 -1.90625 4.328125 -2.15625 C 7.648438 -3.4375 9.3125 -4.945312 9.3125 -6.6875 L 9.3125 -7.015625 C 9.3125 -7.148438 9.265625 -7.644531 9.171875 -8.5 L 8.875 -8.5 C 8.664062 -8.5 8.453125 -8.429688 8.234375 -8.296875 C 7.972656 -8.429688 7.828125 -8.5 7.796875 -8.5 L 7.453125 -8.3125 C 5.597656 -8.894531 4.671875 -9.804688 4.671875 -11.046875 L 4.671875 -11.375 C 5.703125 -14.351562 7.046875 -15.84375 8.703125 -15.84375 Z M 7.59375 -11.84375 L 7.453125 -11.921875 C 7.453125 -11.785156 7.289062 -11.484375 6.96875 -11.015625 L 6.96875 -10.703125 C 7.175781 -10.703125 7.28125 -10.59375 7.28125 -10.375 L 7.265625 -10.375 C 8.085938 -10.375 8.800781 -10.582031 9.40625 -11 C 10.125 -11.257812 10.679688 -11.753906 11.078125 -12.484375 C 10.972656 -12.660156 10.921875 -12.835938 10.921875 -13.015625 L 10.953125 -13.015625 C 9.972656 -13.015625 8.851562 -12.625 7.59375 -11.84375 Z M 7.59375 -11.84375 "></path></g></g></g><g fill="#000000" fill-opacity="1"><g transform="translate(25.154299, 21.150255)"><g><path d="M 6.828125 -18.765625 C 7.972656 -18.765625 8.546875 -17.5 8.546875 -14.96875 L 8.71875 -14.125 L 8.890625 -14.125 C 11.429688 -15.25 13.550781 -15.992188 15.25 -16.359375 C 15.832031 -16.160156 16.125 -15.695312 16.125 -14.96875 C 15.21875 -14.3125 12.976562 -13.28125 9.40625 -11.875 L 8.375 -11.875 C 6.882812 -11.875 6.023438 -13.882812 5.796875 -17.90625 C 5.859375 -18.25 6.203125 -18.535156 6.828125 -18.765625 Z M 18.359375 -12.390625 C 18.992188 -12.203125 19.453125 -11.914062 19.734375 -11.53125 L 19.734375 -11.359375 C 19.734375 -10.429688 18.53125 -9.742188 16.125 -9.296875 C 7.070312 -6.546875 2.363281 -5.171875 2 -5.171875 L 1.484375 -5.171875 C 0.910156 -5.609375 0.625 -6.066406 0.625 -6.546875 L 0.625 -6.71875 C 0.625 -7.082031 2.75 -7.769531 7 -8.78125 L 18.1875 -12.234375 C 18.1875 -12.335938 18.242188 -12.390625 18.359375 -12.390625 Z M 13.359375 -6.203125 L 13.875 -6.203125 C 14.5625 -6.203125 15.019531 -5.859375 15.25 -5.171875 C 15.25 -4.390625 14.335938 -3.066406 12.515625 -1.203125 C 14.234375 -1.046875 15.09375 -0.585938 15.09375 0.171875 C 15.082031 0.628906 14.222656 1.78125 12.515625 3.625 C 15.234375 2.8125 16.835938 2.40625 17.328125 2.40625 C 17.785156 2.914062 18.015625 3.207031 18.015625 3.28125 L 18.015625 3.625 C 18.015625 4.53125 15.316406 5.332031 9.921875 6.03125 C 9.234375 6.03125 8.832031 5.566406 8.71875 4.640625 C 10.5 2.984375 11.765625 1.664062 12.515625 0.6875 C 10.671875 0.53125 9.75 0.242188 9.75 -0.171875 L 9.75 -0.515625 C 11.820312 -2.441406 12.859375 -3.707031 12.859375 -4.3125 C 12.609375 -4.3125 11.742188 -3.90625 10.265625 -3.09375 L 10.09375 -3.09375 C 9.476562 -3.09375 9.078125 -3.320312 8.890625 -3.78125 L 8.890625 -4.3125 C 10.253906 -5.570312 11.742188 -6.203125 13.359375 -6.203125 Z M 13.359375 -6.203125 "></path></g></g></g><g fill="#000000" fill-opacity="1"><g transform="translate(45.70847, 21.150255)"><g></g></g></g><g fill="#000000" fill-opacity="1"><g transform="translate(52.899312, 21.150255)"><g><path d="M 10.78125 -17.046875 C 13.644531 -16.578125 15.078125 -16.0625 15.078125 -15.5 C 15.316406 -15.5 15.4375 -15.210938 15.4375 -14.640625 C 14.394531 -12.804688 12.726562 -11.890625 10.4375 -11.890625 C 8.832031 -12.691406 8.03125 -13.550781 8.03125 -14.46875 C 8.03125 -15.625 8.832031 -16.484375 10.4375 -17.046875 Z M 10.265625 -14.125 L 10.609375 -13.9375 L 10.953125 -13.9375 C 12.210938 -14.226562 12.84375 -14.519531 12.84375 -14.8125 C 11.925781 -14.882812 11.46875 -15 11.46875 -15.15625 C 10.664062 -14.96875 10.265625 -14.625 10.265625 -14.125 Z M 17.328125 -9.8125 C 18.242188 -9.8125 18.703125 -9.410156 18.703125 -8.609375 L 18.703125 -8.265625 C 18.703125 -7.898438 17.664062 -7.5 15.59375 -7.0625 L 15.59375 -6.375 C 15.132812 -2.238281 14.675781 -0.171875 14.21875 -0.171875 L 13.1875 -0.015625 C 12.957031 -0.378906 12.84375 -0.660156 12.84375 -0.859375 C 12.957031 -3.816406 13.128906 -5.710938 13.359375 -6.546875 L 13.359375 -6.71875 C 6.503906 -5.457031 2.773438 -4.828125 2.171875 -4.828125 C 1.765625 -4.828125 1.25 -5.171875 0.625 -5.859375 L 0.625 -6.890625 C 1.1875 -6.890625 5.429688 -7.519531 13.359375 -8.78125 C 15.671875 -9.132812 16.992188 -9.476562 17.328125 -9.8125 Z M 9.40625 -2.40625 L 9.75 -2.40625 C 10.375 -2.40625 10.832031 -2.066406 11.125 -1.390625 L 11.125 -0.171875 C 11.269531 0.859375 11.554688 1.375 11.984375 1.375 C 15.378906 0.445312 17.210938 -0.015625 17.484375 -0.015625 C 17.484375 0.109375 17.546875 0.285156 17.671875 0.515625 C 17.671875 1.390625 16.117188 2.363281 13.015625 3.4375 C 10.265625 3.132812 8.890625 1.816406 8.890625 -0.515625 L 8.890625 -1.390625 C 8.960938 -2.066406 9.132812 -2.40625 9.40625 -2.40625 Z M 9.40625 -2.40625 "></path></g></g></g><g fill="#000000" fill-opacity="1"><g transform="translate(72.414343, 21.150255)"><g><path d="M 14.0625 -18.9375 C 14.476562 -18.9375 14.875 -18.535156 15.25 -17.734375 C 15.25 -17.097656 13.585938 -16.582031 10.265625 -16.1875 C 9.804688 -15.050781 9.578125 -14.015625 9.578125 -13.078125 C 10.984375 -13.773438 12.414062 -14.125 13.875 -14.125 C 15.144531 -13.695312 15.78125 -13.003906 15.78125 -12.046875 C 15.78125 -10.679688 14.921875 -9.25 13.203125 -7.75 C 15.804688 -8.320312 17.179688 -8.609375 17.328125 -8.609375 C 18.066406 -8.304688 18.46875 -8.019531 18.53125 -7.75 L 18.53125 -7.234375 C 18.53125 -6.703125 16.289062 -6.066406 11.8125 -5.328125 C 11.789062 -5.179688 10.816406 -4.953125 8.890625 -4.640625 L 8.890625 -4.828125 C 8.546875 -4.585938 7.914062 -4.414062 7 -4.3125 L 7 -4.46875 C 5.414062 -4.007812 3.578125 -3.78125 1.484375 -3.78125 C 0.910156 -4.25 0.625 -4.648438 0.625 -4.984375 C 0.625 -5.671875 1.769531 -6.015625 4.0625 -6.015625 C 6.113281 -6.234375 8.582031 -7.210938 11.46875 -8.953125 C 12.957031 -10.335938 13.703125 -11.429688 13.703125 -12.234375 L 13.546875 -12.234375 C 12.691406 -11.992188 11.253906 -11.414062 9.234375 -10.5 C 7.972656 -10.5 7.34375 -11.472656 7.34375 -13.421875 C 7.675781 -14.890625 7.84375 -15.695312 7.84375 -15.84375 C 6.9375 -15.957031 6.484375 -16.359375 6.484375 -17.046875 C 6.710938 -17.421875 6.828125 -17.765625 6.828125 -18.078125 L 8.03125 -18.078125 C 8.644531 -18.078125 10.65625 -18.363281 14.0625 -18.9375 Z M 9.75 -3.09375 L 10.609375 -3.09375 C 10.722656 -3.09375 10.78125 -3.035156 10.78125 -2.921875 L 11.125 -3.09375 L 11.640625 -3.09375 C 13.585938 -2.738281 14.5625 -2.050781 14.5625 -1.03125 C 14.5625 0.0625 13.359375 0.921875 10.953125 1.546875 C 9.234375 1.296875 8.375 0.492188 8.375 -0.859375 C 8.375 -1.429688 8.832031 -2.117188 9.75 -2.921875 Z M 10.4375 -0.6875 L 10.4375 -0.515625 L 11.125 -0.515625 C 12.382812 -0.859375 13.015625 -1.203125 13.015625 -1.546875 C 12.554688 -1.773438 12.15625 -1.890625 11.8125 -1.890625 C 10.894531 -1.890625 10.4375 -1.488281 10.4375 -0.6875 Z M 10.4375 -0.6875 "></path></g></g></g><g fill="#000000" fill-opacity="1"><g transform="translate(91.763113, 21.150255)"><g></g></g></g><g fill="#000000" fill-opacity="1"><g transform="translate(98.953955, 21.150255)"><g><path d="M 15.21875 -17.46875 C 16.351562 -17.144531 16.921875 -16.34375 16.921875 -15.0625 L 16.765625 -15.0625 C 16.765625 -14.9375 16.816406 -14.875 16.921875 -14.875 C 16.816406 -13.53125 16.765625 -12.554688 16.765625 -11.953125 L 16.765625 -10.234375 L 18.484375 -10.75 C 18.878906 -10.664062 19.222656 -10.320312 19.515625 -9.71875 L 19.515625 -9.03125 C 17.773438 -8.507812 16.742188 -7.9375 16.421875 -7.3125 L 16.59375 -6.953125 C 16.382812 -4.203125 16.039062 -2.828125 15.5625 -2.828125 L 15.21875 -2.65625 C 14.5 -2.882812 14.09375 -3.171875 14 -3.515625 C 14.125 -5.015625 14.1875 -6.222656 14.1875 -7.140625 L 14.1875 -7.8125 L 14 -7.8125 C 9.082031 -4.625 5.238281 -2.789062 2.46875 -2.3125 C 1.320312 -2.539062 0.75 -3 0.75 -3.6875 C 0.75 -4.1875 1.664062 -4.53125 3.5 -4.71875 C 5.113281 -5.375 5.921875 -5.890625 5.921875 -6.265625 C 5.921875 -6.546875 5.859375 -7.410156 5.734375 -8.859375 C 3.328125 -9.148438 2.125 -9.953125 2.125 -11.265625 L 2.125 -12.125 C 3.539062 -14.769531 5.265625 -16.09375 7.296875 -16.09375 C 9.015625 -15.46875 9.875 -14.375 9.875 -12.8125 C 9.550781 -11.914062 8.863281 -10.941406 7.8125 -9.890625 L 7.8125 -9.71875 C 7.8125 -9.113281 7.863281 -8.140625 7.96875 -6.796875 L 8.15625 -6.796875 L 14.1875 -10.0625 L 14.34375 -10.0625 L 14.34375 -13.515625 L 14.53125 -14.53125 L 14.34375 -14.875 L 14.53125 -15.21875 L 14.34375 -16.765625 C 14.46875 -17.234375 14.757812 -17.46875 15.21875 -17.46875 Z M 4.375 -11.4375 L 4.375 -10.921875 L 5.234375 -10.921875 C 5.609375 -11.609375 6.003906 -11.953125 6.421875 -11.953125 C 6.984375 -11.953125 7.5625 -12.472656 8.15625 -13.515625 C 8.03125 -13.710938 7.96875 -13.9375 7.96875 -14.1875 L 6.953125 -14.1875 C 5.460938 -13.101562 4.65625 -12.242188 4.53125 -11.609375 C 4.425781 -11.609375 4.375 -11.550781 4.375 -11.4375 Z M 9.875 -2.484375 C 10.90625 -2.117188 11.421875 -1.140625 11.421875 0.453125 C 11.929688 0.910156 12.21875 1.140625 12.28125 1.140625 C 13.46875 0.648438 14.445312 0.1875 15.21875 -0.25 L 15.734375 -0.25 C 15.734375 -0.0507812 15.90625 0.234375 16.25 0.609375 L 16.25 0.796875 C 16.25 1.878906 15.046875 2.675781 12.640625 3.1875 C 10.773438 3.1875 9.507812 1.695312 8.84375 -1.28125 L 8.84375 -1.96875 C 8.957031 -2.3125 9.300781 -2.484375 9.875 -2.484375 Z M 9.875 -2.484375 "></path></g></g></g><g fill="#000000" fill-opacity="1"><g transform="translate(119.16521, 21.150255)"><g><path d="M 6.828125 -17.40625 L 7.359375 -17.40625 C 8.960938 -16.988281 9.765625 -16.242188 9.765625 -15.171875 L 9.765625 -14.46875 C 9.765625 -13.019531 8.726562 -11.816406 6.65625 -10.859375 C 6.25 -10.859375 5.734375 -10.742188 5.109375 -10.515625 L 5.109375 -10.171875 C 5.773438 -10.171875 8.128906 -10.800781 12.171875 -12.0625 C 12.628906 -11.882812 12.859375 -11.710938 12.859375 -11.546875 L 12.859375 -11.03125 C 11.734375 -9.96875 10.644531 -9.332031 9.59375 -9.125 L 9.59375 -8.96875 C 10.332031 -8.96875 10.789062 -8.453125 10.96875 -7.421875 L 10.96875 -5.515625 C 10.96875 -5.117188 10.738281 -4.253906 10.28125 -2.921875 L 10.796875 -2.921875 C 11.335938 -2.921875 12.601562 -3.15625 14.59375 -3.625 C 15.164062 -3.21875 15.453125 -2.640625 15.453125 -1.890625 C 13.691406 -1.203125 9.09375 -0.453125 1.65625 0.359375 C 0.96875 0.171875 0.625 -0.234375 0.625 -0.859375 L 0.625 -1.375 C 3.125 -1.945312 4.5625 -2.234375 4.9375 -2.234375 C 4.507812 -3.265625 4.222656 -4.929688 4.078125 -7.234375 L 4.421875 -8.4375 C 3.429688 -8.4375 2.796875 -9.070312 2.515625 -10.34375 L 2.515625 -11.375 C 5.847656 -12.507812 7.515625 -13.601562 7.515625 -14.65625 L 7.515625 -15.515625 C 6.867188 -15.515625 5.601562 -15.164062 3.71875 -14.46875 L 3.375 -14.46875 C 2.8125 -14.78125 2.523438 -15.015625 2.515625 -15.171875 L 2.515625 -15.859375 C 2.515625 -16.441406 3.953125 -16.957031 6.828125 -17.40625 Z M 6.140625 -8.265625 L 6.140625 -7.921875 C 6.179688 -7.691406 6.296875 -7.578125 6.484375 -7.578125 L 6.3125 -6.71875 C 6.3125 -5.851562 6.425781 -4.53125 6.65625 -2.75 L 6.828125 -2.75 C 8.210938 -3.570312 8.90625 -5.007812 8.90625 -7.0625 L 8.90625 -7.234375 L 8.71875 -8.4375 C 9.007812 -8.664062 9.242188 -8.78125 9.421875 -8.78125 L 9.421875 -8.96875 L 9.25 -8.96875 C 8.070312 -8.5 7.035156 -8.265625 6.140625 -8.265625 Z M 6.140625 -8.265625 "></path></g></g></g></svg>